# xmcd
#
# Track frame offsets:
#	150
#	31185
#	61887
#	87375
#	107052
#	140475
#	163925
#	190212
#	211895
#	241747
#	266055
#
# Disc length: 3851 seconds
# Revision: 0
# Processed by: cddbd v1.5.2PL0 Copyright (c) Steve Scherf et al.
# Submitted via: dBpowerAMP V12.0
#
DISCID=970f090b
DTITLE=Joe Louis Walker - Blues Survivor
DYEAR=1993
DGENRE=Blues*
TTITLE0=Help Yourself
TTITLE1=Shake For Me
TTITLE2=My Dignity
TTITLE3=Young Girl's Eyes
TTITLE4=Part Of Me
TTITLE5=Bad Thing
TTITLE6=You Just Don't Know
TTITLE7=Put You Down, Baby
TTITLE8=Blues Survivor
TTITLE9=Rainy Nights
TTITLE10=Workin' Blues
EXTD=
EXTT0=
EXTT1=
EXTT2=
EXTT3=
EXTT4=
EXTT5=
EXTT6=
EXTT7=
EXTT8=
EXTT9=
EXTT10=
PLAYORDER=
